<?xml version="1.0" standalone="no"?>
<!DOCTYPE svg PUBLIC "-//W3C//DTD SVG 20010904//EN"
 "http://www.w3.org/TR/2001/REC-SVG-20010904/DTD/svg10.dtd">
<svg version="1.0" xmlns="http://www.w3.org/2000/svg"
 width="1092.000000pt" height="1092.000000pt" viewBox="0 0 1092.000000 1092.000000"
 preserveAspectRatio="xMidYMid meet">
<metadata>
Created by potrace 1.14, written by Peter Selinger 2001-2017
</metadata>
<g transform="translate(0.000000,1092.000000) scale(0.100000,-0.100000)"
fill="#000000" stroke="none">
<path d="M5418 10735 c-1 -1 -97 -6 -213 -10 -115 -3 -235 -8 -265 -10 -224
-13 -279 -17 -310 -20 -19 -2 -75 -6 -125 -10 -49 -3 -106 -8 -125 -10 -19 -2
-64 -6 -100 -10 -36 -3 -81 -8 -100 -10 -19 -2 -57 -7 -85 -10 -167 -18 -259
-30 -470 -60 -123 -18 -123 -18 -255 -40 -52 -9 -108 -18 -125 -21 -39 -6 -96
-16 -115 -20 -8 -1 -64 -12 -125 -24 -874 -170 -1779 -447 -2567 -784 l-36
-15 -2 -123 c-1 -68 -2 -166 -2 -218 -1 -101 12 -697 17 -815 9 -214 17 -366
20 -410 3 -27 7 -102 10 -165 4 -63 8 -133 11 -155 2 -22 6 -80 9 -130 3 -49
7 -106 10 -125 2 -19 7 -73 10 -120 4 -47 8 -103 11 -125 2 -22 6 -69 9 -105
4 -36 8 -76 10 -90 2 -14 7 -61 10 -105 4 -44 9 -83 11 -86 2 -4 -116 -55
-261 -114 -146 -59 -265 -109 -265 -111 0 -2 208 -4 463 -3 l462 0 270 346
c149 190 277 353 285 363 8 9 26 32 40 50 31 42 582 743 620 790 15 19 89 113
163 208 l136 172 54 -67 c29 -38 228 -291 442 -563 214 -272 416 -529 448
-570 33 -41 70 -88 83 -105 125 -161 220 -282 229 -291 5 -7 66 -84 135 -173
l125 -161 1431 0 1432 0 148 188 c290 367 323 409 478 607 87 110 168 214 181
230 14 17 178 226 366 465 188 239 342 436 344 438 1 1 205 -255 452 -570 784
-997 843 -1073 856 -1088 7 -8 57 -72 111 -142 l99 -128 465 0 c256 0 463 2
461 4 -3 3 -307 128 -516 213 -6 3 -10 17 -8 31 14 113 41 380 50 507 3 44 8
96 10 115 2 19 7 80 10 135 4 55 8 114 10 130 2 17 6 91 10 165 4 74 8 144 10
156 2 12 6 102 10 200 4 98 9 195 11 214 2 19 7 281 10 581 l7 545 -45 21
c-77 37 -515 209 -703 276 -957 345 -2037 584 -3125 693 -114 11 -137 13 -220
19 -47 4 -95 8 -107 10 -12 2 -80 7 -150 10 -70 4 -144 9 -163 10 -19 2 -127
7 -240 10 -113 4 -210 8 -217 10 -6 2 -13 2 -15 0z m182 -570 c102 -3 212 -8
245 -10 33 -2 101 -7 150 -10 93 -6 184 -13 270 -20 28 -2 82 -7 120 -10 39
-3 86 -8 105 -10 19 -3 62 -7 95 -10 33 -3 76 -8 95 -10 63 -9 104 -14 155
-20 28 -3 61 -7 75 -10 14 -2 48 -7 75 -10 65 -8 306 -44 325 -50 8 -2 36 -6
61 -9 174 -22 704 -134 1044 -221 422 -108 1081 -320 1365 -439 l55 -23 0
-224 c-1 -217 -12 -623 -20 -704 -2 -22 -7 -107 -10 -190 -3 -82 -8 -163 -10
-180 -2 -16 -6 -75 -10 -130 -7 -128 -15 -229 -20 -280 -2 -22 -7 -83 -11
-135 -5 -52 -9 -98 -10 -102 -1 -5 -2 -11 -3 -14 -1 -5 -191 234 -319 400 -20
26 -42 53 -47 60 -6 6 -231 292 -501 636 -270 344 -500 635 -510 648 l-19 22
-55 -20 c-30 -11 -60 -20 -67 -20 -6 0 -24 -5 -40 -12 -15 -6 -34 -12 -42 -14
-45 -9 -99 -29 -95 -35 2 -4 -1 -11 -7 -15 -8 -4 -9 -3 -5 4 10 17 -2 15 -100
-17 -183 -59 -380 -121 -386 -121 -4 0 -19 -5 -35 -12 -15 -6 -34 -12 -41 -14
-7 -1 -44 -12 -82 -23 -39 -12 -73 -22 -77 -22 -5 -1 -37 -12 -73 -24 -36 -13
-119 -40 -185 -60 -66 -20 -145 -44 -175 -54 -30 -10 -111 -36 -180 -57 -69
-20 -127 -41 -128 -46 -2 -4 -7 -6 -11 -3 -4 2 -37 -5 -72 -15 -35 -11 -65
-20 -66 -20 0 0 -15 30 -33 68 -67 144 -180 321 -371 582 -58 80 -129 181
-159 225 -124 187 -75 93 95 -180 357 -576 458 -831 450 -1140 -6 -214 -90
-430 -229 -580 -19 -22 -32 -43 -29 -49 3 -5 1 -6 -4 -3 -6 4 -17 -1 -24 -10
-28 -33 -156 -120 -229 -156 -163 -78 -312 -112 -485 -111 -141 1 -181 6 -295
35 -83 21 -84 22 -189 70 -318 146 -530 478 -532 832 -2 259 95 526 328 912
46 77 90 149 96 160 7 11 15 22 18 25 16 14 204 330 196 330 -3 0 -18 -21 -33
-47 -27 -46 -65 -101 -317 -450 -64 -89 -117 -165 -117 -168 0 -4 -11 -21 -24
-38 -13 -18 -47 -73 -75 -124 l-52 -91 -65 18 c-35 10 -65 19 -67 18 -1 0 -20
5 -42 10 -22 6 -51 13 -65 16 -14 3 -61 15 -105 27 -93 24 -114 30 -135 34 -8
1 -22 5 -30 8 -14 6 -225 61 -280 73 -40 9 -43 10 -88 23 -23 6 -46 9 -51 6
-5 -3 -11 -1 -13 3 -2 7 -32 16 -148 46 -8 3 -33 9 -55 14 -22 5 -110 28 -195
50 -86 23 -167 44 -180 46 -14 2 -25 5 -25 6 0 1 -7 3 -15 5 -8 1 -35 8 -60
15 -25 7 -52 14 -60 16 -8 2 -76 19 -150 38 -74 20 -137 31 -140 26 -6 -9 -36
-49 -105 -135 -22 -27 -98 -124 -170 -215 -71 -91 -161 -205 -200 -255 -40
-49 -213 -270 -385 -490 -458 -584 -483 -616 -507 -644 l-22 -26 -1 35 c-1 19
-3 43 -5 53 -2 9 -6 57 -9 105 -4 48 -8 107 -11 132 -10 105 -16 188 -30 435
-3 50 -7 135 -11 190 -13 223 -27 646 -28 860 l-1 159 160 61 c419 160 931
320 1375 429 150 37 479 110 540 121 19 3 53 10 75 15 41 9 91 18 135 25 14 2
34 6 45 8 11 3 40 8 65 12 25 4 54 9 65 11 19 4 150 25 240 39 79 12 263 37
365 50 25 3 61 8 80 10 19 3 60 7 91 9 30 3 75 7 100 10 24 3 71 8 104 11 33
3 83 7 110 10 200 19 442 33 680 41 99 4 182 8 184 10 2 2 13 2 25 -1 12 -2
104 -7 206 -10z m2171 -1282 c13 -16 12 -17 -3 -4 -10 7 -18 15 -18 17 0 8 8
3 21 -13z m-926 -323 c3 -5 1 -10 -4 -10 -6 0 -11 5 -11 10 0 6 2 10 4 10 3 0
8 -4 11 -10z m-275 -76 c0 -8 -19 -13 -24 -6 -3 5 1 9 9 9 8 0 15 -2 15 -3z
m560 -800 c0 -8 -19 -13 -24 -6 -3 5 1 9 9 9 8 0 15 -2 15 -3z m-763 -89 c0
-8 -4 -12 -9 -9 -5 3 -6 10 -3 15 9 13 12 11 12 -6z m563 -229 c0 -3 -4 -8
-10 -11 -5 -3 -10 -1 -10 4 0 6 5 11 10 11 6 0 10 -2 10 -4z"/>
<path d="M5395 9895 c-4 -27 -9 -57 -11 -65 -5 -33 -35 -133 -45 -151 -5 -11
-7 -23 -4 -28 3 -5 2 -11 -3 -13 -4 -1 -23 -34 -41 -73 -38 -82 -120 -229
-166 -300 -17 -27 -40 -66 -51 -85 -10 -19 -21 -37 -24 -40 -16 -14 -123 -194
-123 -206 0 -8 -3 -12 -5 -9 -12 11 -175 -291 -235 -435 -17 -40 -53 -160 -62
-205 -3 -16 -8 -41 -10 -55 -6 -29 -7 -181 -2 -225 11 -82 53 -209 67 -200 4
3 6 -4 3 -15 -3 -12 0 -20 8 -20 7 0 9 -3 6 -6 -7 -7 29 -63 48 -76 5 -4 7 -8
3 -8 -20 0 78 -99 156 -157 84 -62 182 -106 317 -140 56 -14 295 -12 364 2 93
20 147 40 138 50 -5 4 -2 5 5 1 7 -4 39 6 75 25 246 127 397 368 398 634 0 94
-35 291 -59 330 -4 5 -7 15 -9 20 -6 30 -35 96 -104 230 -95 188 -118 227
-132 218 -6 -3 -7 -1 -3 5 7 12 -101 198 -133 229 -9 9 -15 18 -13 20 5 7 -29
63 -38 63 -6 0 -9 4 -8 9 3 8 -58 118 -72 131 -15 15 -136 258 -159 320 -30
82 -53 168 -60 225 l-7 50 -9 -50z m649 -1333 c3 -5 -1 -9 -9 -9 -8 0 -12 4
-9 9 3 4 7 8 9 8 2 0 6 -4 9 -8z"/>
<path d="M5770 9510 c6 -11 13 -20 16 -20 2 0 0 9 -6 20 -6 11 -13 20 -16 20
-2 0 0 -9 6 -20z"/>
<path d="M8045 7390 c0 -126 2 -150 15 -151 17 -1 232 -1 268 0 22 1 22 2 22
151 l0 150 -153 0 -152 0 0 -150z"/>
<path d="M8429 7508 c-3 -128 2 -262 10 -267 7 -5 242 -6 284 -2 4 1 7 69 7
151 l0 150 -150 0 -150 0 -1 -32z"/>
<path d="M2039 7471 c-4 -26 0 -281 4 -288 4 -6 66 -10 149 -9 l143 2 3 151 3
151 -151 -1 c-82 0 -150 -3 -151 -6z"/>
<path d="M2424 7326 l1 -151 150 0 150 0 0 148 c0 123 -2 148 -15 151 -8 3
-76 4 -151 4 l-137 -1 2 -151z"/>
<path d="M8047 7155 c-2 -5 -3 -73 -3 -150 l1 -140 153 -1 152 -1 0 151 0 152
-150 -1 c-91 0 -151 -4 -153 -10z"/>
<path d="M8429 7130 c-1 -49 -1 -166 0 -221 l1 -46 150 -1 150 0 0 152 0 151
-150 0 -150 0 -1 -35z"/>
<path d="M2042 7091 c-4 -11 -7 -232 -3 -278 1 -10 38 -13 151 -13 l150 0 0
150 c0 149 0 150 -22 151 -159 7 -271 3 -276 -10z"/>
<path d="M2448 7102 l-27 -3 2 -147 2 -147 150 0 150 0 0 148 c0 91 -4 147
-10 148 -33 3 -244 3 -267 1z"/>
<path d="M3385 6560 c-2 -3 -2 -33 0 -67 6 -110 70 -214 156 -253 110 -49 245
2 302 115 17 34 43 132 41 155 -1 8 -2 24 -3 35 -1 20 -7 20 -247 20 -135 0
-247 -2 -249 -5z"/>
<path d="M3969 6520 c-1 -62 -7 -95 -28 -150 -21 -56 -77 -140 -93 -140 -6 0
-8 -3 -5 -7 9 -8 3097 -8 3097 1 0 3 -15 26 -33 52 -49 69 -76 149 -76 224
l-1 65 -1430 0 -1430 0 -1 -45z"/>
<path d="M6917 6555 c-8 -21 2 -106 17 -153 21 -62 87 -139 141 -163 76 -35
183 -17 243 40 52 51 90 133 93 206 5 88 30 80 -246 80 -154 0 -246 -4 -248
-10z"/>
<path d="M5119 6006 c-2 -2 -23 -6 -46 -9 -141 -20 -277 -101 -353 -212 -51
-76 -65 -129 -65 -255 0 -110 1 -118 33 -182 55 -113 161 -185 334 -228 230
-57 269 -77 271 -143 2 -73 -55 -116 -164 -124 -88 -7 -211 18 -314 63 -117
52 -109 53 -135 -8 -12 -29 -40 -91 -62 -137 -21 -47 -37 -90 -34 -96 5 -14
170 -79 252 -100 169 -42 398 -38 537 10 232 80 348 245 343 488 -1 87 -5 110
-28 157 -34 72 -96 133 -172 169 -33 16 -131 48 -216 71 -169 45 -214 69 -225
121 -8 37 16 76 58 97 63 31 208 8 329 -51 l67 -33 86 126 c47 69 85 131 85
138 0 19 -159 90 -255 113 -79 18 -313 37 -326 25z"/>
<path d="M2883 5982 l-33 -3 0 -705 0 -705 353 4 c193 2 365 6 380 10 205 53
319 202 318 415 -1 68 -6 95 -27 143 -31 69 -93 130 -165 164 -46 21 -49 24
-27 30 65 21 134 106 158 195 16 59 14 172 -5 236 -30 104 -117 180 -235 205
-50 11 -631 19 -717 11z m515 -310 c40 -3 72 -45 72 -96 0 -102 -33 -129 -159
-130 l-86 -1 -2 116 -2 115 77 -1 c42 -1 87 -2 100 -3z m36 -545 c29 -19 46
-70 41 -125 -7 -96 -45 -122 -174 -122 l-80 0 1 135 0 135 93 -3 c66 -2 101
-8 119 -20z"/>
<path d="M6235 5980 l-41 -5 83 -340 c46 -187 85 -349 87 -360 2 -11 42 -174
88 -362 l83 -343 203 0 c111 0 202 3 202 6 0 3 21 119 46 257 25 139 56 320
69 402 13 83 24 141 25 130 1 -11 3 -29 5 -40 2 -11 9 -56 15 -100 11 -76 30
-185 85 -498 14 -76 25 -142 25 -147 0 -6 77 -10 198 -10 l199 0 15 58 c90
328 349 1344 344 1349 -10 10 -376 7 -385 -3 -17 -19 -116 -560 -137 -749 -3
-33 -7 -61 -9 -63 -1 -1 -7 43 -14 98 -10 84 -46 282 -114 638 -8 40 -17 75
-20 79 -9 8 -395 8 -404 0 -12 -13 -117 -601 -129 -725 -7 -81 -20 -84 -27 -7
-8 74 -33 211 -83 453 -25 120 -48 232 -51 250 -4 20 -12 32 -22 33 -75 4
-304 3 -336 -1z"/>
<path d="M4193 4948 c-81 -17 -150 -100 -159 -192 -7 -73 47 -164 120 -204 41
-21 141 -21 181 0 39 21 82 64 103 103 21 39 21 140 0 180 -46 87 -147 134
-245 113z"/>
<path d="M6010 4946 c-91 -23 -160 -111 -160 -203 0 -51 42 -135 84 -167 78
-59 188 -55 264 9 50 44 75 95 75 160 0 138 -128 236 -263 201z"/>
<path d="M4216 4138 c-117 -25 -205 -133 -224 -276 -25 -181 31 -318 154 -378
48 -24 69 -28 143 -27 165 0 246 67 286 238 14 63 12 195 -4 252 -19 69 -71
135 -132 166 -59 30 -152 40 -223 25z m124 -143 c26 -14 31 -22 47 -95 8 -34
2 -201 -8 -227 -6 -15 -10 -30 -10 -33 2 -10 -29 -40 -41 -41 -7 -1 -24 -3
-38 -4 -65 -7 -100 46 -107 164 -13 187 55 289 157 236z"/>
<path d="M5661 4133 c-144 -37 -224 -162 -223 -348 2 -241 149 -364 385 -321
34 6 117 47 117 58 0 4 -16 33 -36 63 l-35 56 -33 -21 c-21 -13 -50 -20 -81
-20 -39 0 -52 5 -75 30 -35 38 -46 84 -44 191 2 89 14 128 52 162 26 24 101
25 136 1 15 -9 28 -15 30 -13 2 2 19 32 40 67 l36 63 -44 19 c-56 25 -156 31
-225 13z"/>
<path d="M9215 4133 c-87 -26 -157 -88 -192 -170 -21 -51 -24 -67 -30 -154 -8
-114 29 -222 98 -286 85 -78 260 -91 396 -29 l53 25 0 165 0 165 -135 -1
c-153 0 -142 7 -129 -91 7 -45 7 -46 47 -49 41 -3 41 -4 42 -43 2 -61 -2 -65
-55 -65 -85 0 -120 59 -120 200 0 142 33 196 125 205 21 2 98 -24 115 -40 16
-15 21 -13 64 37 25 29 46 56 46 60 0 11 -85 58 -127 70 -57 16 -145 16 -198
1z"/>
<path d="M1142 3800 l3 -335 307 0 307 0 41 87 c22 49 42 88 45 88 5 0 16 -23
68 -142 6 -16 16 -29 22 -29 30 -4 182 -5 191 -2 7 3 -27 74 -84 176 -52 94
-95 176 -95 182 0 5 37 73 82 150 46 77 83 144 84 149 3 14 -192 14 -202 1 -4
-5 -21 -41 -37 -78 l-29 -68 -36 78 -36 78 -106 0 c-59 0 -107 -1 -107 -2 0
-1 41 -72 91 -158 61 -105 89 -161 84 -173 -12 -32 -180 -311 -187 -311 -4 -1
-7 26 -5 59 l2 60 -118 0 -117 0 2 68 3 67 83 0 82 0 0 67 c0 38 -3 68 -7 69
-5 0 -42 1 -83 2 l-75 2 -3 53 -2 52 52 1 c29 0 74 1 100 1 26 -1 50 3 53 7 9
15 16 131 8 132 -5 1 -92 2 -196 3 l-187 1 2 -335z"/>
<path d="M2129 4115 c0 -11 -2 -44 -3 -72 l-1 -53 77 0 c67 0 78 -2 79 -17 0
-10 1 -128 1 -263 l1 -245 86 0 86 0 2 245 c1 135 2 253 2 262 1 14 14 18 78
20 85 3 77 -5 89 93 l6 50 -251 0 c-245 0 -251 0 -252 -20z"/>
<path d="M2669 4085 c0 -65 0 -574 0 -600 1 -19 8 -20 201 -20 l200 0 0 72 0
72 -112 3 -113 3 -2 65 -2 66 72 -1 c40 -1 77 0 83 2 16 6 18 133 2 134 -7 1
-45 1 -84 1 l-70 1 -2 53 -1 54 57 1 c31 0 78 0 105 -1 l47 -1 0 38 c1 21 3
54 6 73 l5 35 -196 0 -195 0 -1 -50z"/>
<path d="M3152 4131 c-4 -3 -8 -152 -8 -331 1 -281 3 -326 16 -331 8 -3 47 -5
85 -5 l70 1 2 128 c1 71 4 132 8 135 9 9 34 -10 50 -38 8 -14 32 -70 52 -125
l39 -100 97 0 c53 0 97 4 97 9 0 5 -18 47 -40 93 -22 47 -40 89 -40 93 0 5
-16 29 -35 54 -21 27 -29 46 -22 46 8 0 30 15 51 33 78 68 82 212 9 285 -7 7
-34 22 -59 34 -40 17 -70 21 -205 22 -88 1 -162 0 -167 -3z m274 -154 c3 -2 9
-18 14 -35 13 -47 -16 -79 -75 -84 -43 -3 -45 -2 -46 24 -4 84 0 106 19 110
17 4 80 -7 88 -15z"/>
<path d="M3732 4130 c-6 -4 -9 -585 -3 -650 1 -13 17 -15 86 -15 50 0 85 4 86
10 5 64 2 640 -3 648 -7 12 -152 18 -166 7z"/>
<path d="M4670 3801 l0 -336 83 1 c45 1 84 2 87 3 3 0 5 58 5 128 0 79 4 128
10 130 23 7 53 -39 93 -148 l43 -115 97 1 c84 1 97 3 94 17 -5 29 -100 222
-121 247 l-21 24 32 20 c46 27 63 47 78 92 15 46 15 127 -1 158 -45 87 -108
109 -320 112 l-159 2 0 -336z m282 172 c24 -21 23 -68 -2 -93 -14 -14 -33 -20
-63 -20 l-42 0 0 65 -1 65 45 0 c27 0 51 -6 63 -17z"/>
<path d="M5999 4120 c-4 -68 -1 -630 3 -641 5 -12 39 -14 184 -14 l178 0 13
50 c27 105 37 95 -92 95 l-113 0 0 188 c0 103 -1 221 -1 262 l-1 76 -85 -1
c-68 0 -85 -3 -86 -15z"/>
<path d="M6461 4130 c-9 -7 -9 -653 0 -660 4 -3 94 -5 201 -5 l193 0 1 73 2
72 -113 0 -113 0 -4 48 c-6 89 -7 88 75 87 40 -1 77 0 83 2 11 4 13 110 2 128
-3 6 -40 9 -82 9 l-76 -2 0 54 0 54 33 1 c17 1 62 0 99 0 l66 -1 7 31 c4 17 5
33 2 35 -3 3 -1 21 3 40 4 18 5 35 1 35 -21 4 -374 3 -380 -1z"/>
<path d="M7075 4130 c-1 -3 -37 -113 -80 -245 -42 -132 -88 -274 -101 -315
-36 -110 -38 -106 62 -105 l86 0 19 62 c22 69 23 70 114 65 59 -3 64 -5 70
-30 3 -15 10 -43 15 -62 l10 -35 92 0 c54 0 92 5 91 10 0 6 -13 51 -28 100
-110 370 -164 548 -171 554 -7 7 -175 8 -179 1z m91 -238 c-2 -4 1 -30 8 -57
30 -116 31 -105 -15 -105 -38 0 -41 2 -35 23 4 12 11 45 17 72 13 63 17 75 24
75 4 0 4 -3 1 -8z"/>
<path d="M7506 4130 c-2 -3 -3 -154 -4 -335 l0 -330 81 0 82 0 0 157 c0 86 1
156 2 155 1 -1 37 -72 80 -157 l78 -155 88 0 c71 0 87 2 88 15 4 71 3 625 -2
638 -8 24 -158 26 -160 2 0 -8 -1 -82 -1 -164 l0 -148 -52 103 c-29 57 -66
131 -84 164 l-32 61 -81 0 c-44 -1 -82 -3 -83 -6z"/>
<path d="M8119 4135 c-4 0 -3 -665 1 -666 33 -7 170 -3 171 5 1 11 1 606 0
641 -1 20 -28 23 -172 20z"/>
<path d="M8420 4133 c-13 -3 -15 -45 -14 -326 1 -177 2 -327 3 -332 0 -6 35
-10 81 -11 l81 0 -3 162 c-2 89 -2 162 -1 160 1 -1 38 -74 81 -162 l80 -160
88 1 89 1 0 334 0 334 -83 1 -83 1 3 -163 c2 -90 0 -163 -4 -163 -5 0 -8 6 -8
13 0 13 -73 159 -131 262 l-28 49 -68 1 c-37 1 -75 -1 -83 -2z"/>
<path d="M660 3911 c-89 -43 -103 -153 -29 -216 60 -50 164 -22 195 51 43 103
-67 213 -166 165z"/>
<path d="M9805 3920 c-68 -15 -104 -57 -107 -123 -5 -125 172 -175 236 -67 53
91 -29 212 -129 190z"/>
<path d="M731 3312 c-31 -3 -21 -9 85 -51 192 -77 667 -271 689 -281 15 -7
470 -194 601 -247 6 -2 57 -57 112 -122 206 -241 272 -312 552 -591 129 -129
275 -271 325 -315 49 -44 99 -89 111 -100 25 -24 41 -37 204 -175 69 -58 141
-117 160 -132 602 -473 1123 -800 1690 -1061 142 -65 136 -64 220 -27 78 33
435 210 505 250 22 12 76 43 120 67 280 158 671 421 984 661 105 80 424 342
441 361 3 3 39 35 80 71 41 36 104 92 140 125 82 75 498 491 565 565 115 126
216 241 292 330 80 94 82 95 175 132 51 20 298 121 548 223 250 102 524 214
607 247 84 34 151 63 149 65 -2 2 -375 5 -830 6 l-827 3 -117 -145 c-321 -401
-665 -761 -1097 -1150 -352 -317 -879 -706 -1268 -935 -118 -70 -349 -197
-440 -242 l-107 -53 -45 20 c-105 47 -346 178 -535 292 -385 233 -719 475
-1098 795 -67 57 -137 117 -155 133 -17 16 -78 71 -134 122 -167 151 -548 541
-686 701 -143 166 -311 370 -375 456 -4 5 -1586 7 -1641 2z"/>
<path d="M2782 3312 l-62 -3 72 -87 c40 -48 87 -103 104 -122 569 -645 1134
-1148 1769 -1575 162 -108 425 -269 525 -321 30 -15 67 -36 82 -46 14 -10 32
-18 40 -19 7 0 29 -11 48 -23 l35 -24 100 51 c304 155 696 408 1035 665 105
80 384 304 400 322 3 3 39 34 80 70 274 239 699 671 940 956 14 16 49 57 78
92 43 49 50 62 35 63 -50 3 -5227 4 -5281 1z"/>
</g>
</svg>
